<svg xmlns="http://www.w3.org/2000/svg" viewBox="0 0 200 60" fill="none">
  <!-- ADNOC Brand Colors -->
  <defs>
    <linearGradient id="adnocRed" x1="0%" y1="0%" x2="100%" y2="100%">
      <stop offset="0%" style="stop-color:#e31837;stop-opacity:1" />
      <stop offset="100%" style="stop-color:#c41230;stop-opacity:1" />
    </linearGradient>
  </defs>
  
  <!-- ADNOC Icon - Stylized flame/droplet -->
  <g transform="translate(8, 5)">
    <!-- Main flame/droplet shape -->
    <path d="M20 48 C8 48 2 38 2 28 C2 18 10 8 20 2 C30 8 38 18 38 28 C38 38 32 48 20 48" fill="url(#adnocRed)" />
    <!-- Inner highlight -->
    <path d="M20 40 C12 40 8 34 8 28 C8 22 12 14 20 10 C28 14 32 22 32 28 C32 34 28 40 20 40" fill="#ffffff" opacity="0.3" />
    <!-- Center accent -->
    <ellipse cx="20" cy="30" rx="6" ry="8" fill="#ffffff" opacity="0.5" />
  </g>
  
  <!-- ADNOC Text -->
  <text x="52" y="36" font-family="Arial, Helvetica, sans-serif" font-size="28" font-weight="700" fill="#e31837" letter-spacing="2">
    ADNOC
  </text>
  
  <!-- Tagline -->
  <text x="52" y="50" font-family="Arial, Helvetica, sans-serif" font-size="7" font-weight="500" fill="#6b7280" letter-spacing="1.5">
    ABU DHABI NATIONAL OIL COMPANY
  </text>
</svg>

